<svg width="90" height="115" viewBox="0 0 90 115" fill="none" xmlns="http://www.w3.org/2000/svg">
<path d="M48.7048 94.601C48.7048 82.186 58.7747 72.0825 71.1561 72.0825C72.1545 72.0825 73.1393 72.1511 74.107 72.278C74.1002 65.4703 72.264 59.0913 69.0737 53.6075C71.098 52.0916 72.411 49.6703 72.411 46.9404C72.411 43.3839 70.1816 40.3488 67.0495 39.1621V30.0841C67.0495 13.4953 53.5945 0 37.0552 0C20.5159 0 7.0609 13.4953 7.0609 30.0841V39.1621C3.9288 40.3488 1.6994 43.3839 1.6994 46.9404C1.6994 49.6703 3.01242 52.0916 5.03666 53.6075C1.83618 59.105 0 65.4977 0 72.3226C0 92.8485 16.5906 109.489 37.0552 109.489C42.3757 109.489 47.4328 108.36 52.0045 106.337C49.9153 102.918 48.7048 98.8982 48.7048 94.601ZM16.2862 41.5388C15.387 40.486 14.2312 39.6629 12.9182 39.1656V30.0841C12.9182 16.7363 23.7472 5.87484 37.0552 5.87484C50.3632 5.87484 61.1922 16.7363 61.1922 30.0841V39.1656C59.8758 39.6663 58.72 40.486 57.8242 41.5388C51.9019 37.5091 44.7521 35.1564 37.0552 35.1564C29.3583 35.1564 22.2119 37.5091 16.2862 41.5388Z" fill="#C4C3CD"/>
<path d="M64.1191 50.6545C66.1643 50.6545 67.8223 48.9916 67.8223 46.9403C67.8223 44.889 66.1643 43.2261 64.1191 43.2261C62.074 43.2261 60.416 44.889 60.416 46.9403C60.416 48.9916 62.074 50.6545 64.1191 50.6545Z" fill="white"/>
<path d="M9.98779 50.6545C12.033 50.6545 13.6909 48.9916 13.6909 46.9403C13.6909 44.889 12.033 43.2261 9.98779 43.2261C7.94261 43.2261 6.28467 44.889 6.28467 46.9403C6.28467 48.9916 7.94261 50.6545 9.98779 50.6545Z" fill="white"/>
<path d="M43.3023 64.1396C43.3023 60.6792 40.5053 57.8738 37.0552 57.8738C33.6051 57.8738 30.8081 60.6792 30.8081 64.1396C30.8081 66.4168 32.0254 68.406 33.8376 69.5034L32.1553 86.7713H41.9551L40.2728 69.5034C42.085 68.406 43.3023 66.4168 43.3023 64.1396Z" fill="white"/>
<path d="M81.8518 108.141C78.8188 110.559 75.0849 111.876 71.1561 111.876C61.6572 111.876 53.933 104.125 53.933 94.6009C53.933 85.0736 61.6607 77.3262 71.1561 77.3262C78.1999 77.3262 84.4641 81.5549 87.1175 88.0985L90 86.9221C86.8679 79.1953 79.4719 74.2053 71.1561 74.2053C59.9442 74.2053 50.8214 83.3554 50.8214 94.6009C50.8214 105.846 59.9442 114.997 71.1561 114.997C76.0902 114.997 80.7644 113.237 84.4607 110.02L87.5176 112.222L88.5571 101.693L78.9453 106.052L81.8518 108.141Z" fill="#C4C3CD"/>
</svg>
