<?xml version="1.0" ?>
<!DOCTYPE svg  PUBLIC '-//W3C//DTD SVG 1.1//EN'  'http://www.w3.org/Graphics/SVG/1.1/DTD/svg11.dtd'>
<!-- Uploaded to: SVG Repo, www.svgrepo.com, Generator: SVG Repo Mixer Tools -->
<svg fill="#000000" width="800px" height="800px" viewBox="0 0 48 48" enable-background="new 0 0 48 48" id="Layer_3" version="1.1" xml:space="preserve" xmlns="http://www.w3.org/2000/svg" xmlns:xlink="http://www.w3.org/1999/xlink">
<g>
<path d="M22.066,44.07c0,0.661,0.149,1.168,0.446,1.521c0.299,0.353,0.767,0.602,1.405,0.744c0.64,0.144,1.543,0.237,2.712,0.281   l-0.265,1.355c-2.116-0.133-4.982-0.199-8.597-0.199c-3.77,0-6.646,0.066-8.63,0.199l0.363-1.355   c1.587-0.066,2.778-0.243,3.572-0.529c0.793-0.287,1.427-0.82,1.901-1.604c0.474-0.782,0.931-2.012,1.372-3.687l8.928-33.594   c0.375-1.433,0.562-2.513,0.562-3.24c0-0.684-0.153-1.201-0.463-1.554c-0.309-0.353-0.776-0.601-1.405-0.744   c-0.628-0.144-1.526-0.237-2.694-0.281l0.331-1.355c1.851,0.132,4.717,0.198,8.596,0.198c3.638,0,6.525-0.066,8.663-0.198   l-0.33,1.355c-1.653,0.066-2.883,0.242-3.687,0.529C34.04,2.199,33.401,2.729,32.928,3.5s-0.931,2.006-1.372,3.703l-8.928,33.594   C22.254,42.252,22.066,43.343,22.066,44.07z"/>
</g>
</svg>