<svg width="24" height="24" viewBox="0 0 24 24" fill="none" xmlns="http://www.w3.org/2000/svg">
<path d="M14.9002 2H9.10025C8.42025 2 7.46024 2.4 6.98024 2.88L2.88025 6.98001C2.40025 7.46001 2.00024 8.42001 2.00024 9.10001V14.9C2.00024 15.58 2.40025 16.54 2.88025 17.02L6.98024 21.12C7.46024 21.6 8.42025 22 9.10025 22H14.9002C15.5802 22 16.5402 21.6 17.0202 21.12L21.1202 17.02C21.6002 16.54 22.0002 15.58 22.0002 14.9V9.10001C22.0002 8.42001 21.6002 7.46001 21.1202 6.98001L17.0202 2.88C16.5402 2.4 15.5802 2 14.9002 2Z" stroke="#F86B6B" stroke-width="1.5" stroke-linecap="round" stroke-linejoin="round"/>
<path d="M8.49976 15.5L15.4998 8.5" stroke="#F86B6B" stroke-width="1.5" stroke-linecap="round" stroke-linejoin="round"/>
<path d="M15.4998 15.5L8.49976 8.5" stroke="#F86B6B" stroke-width="1.5" stroke-linecap="round" stroke-linejoin="round"/>
</svg>
