<svg width="32" height="32" viewBox="0 0 32 32" fill="none" xmlns="http://www.w3.org/2000/svg">
<path d="M14.6667 2.66669H12C5.33332 2.66669 2.66666 5.33335 2.66666 12V20C2.66666 26.6667 5.33332 29.3334 12 29.3334H20C26.6667 29.3334 29.3333 26.6667 29.3333 20V17.3334" stroke="#C4C3CD" stroke-width="1.5" stroke-linecap="round" stroke-linejoin="round"/>
<path d="M21.3867 4.02664L10.88 14.5333C10.48 14.9333 10.08 15.72 9.99999 16.2933L9.42666 20.3066C9.21332 21.76 10.24 22.7733 11.6933 22.5733L15.7067 22C16.2667 21.92 17.0533 21.52 17.4667 21.12L27.9733 10.6133C29.7867 8.79997 30.64 6.6933 27.9733 4.02664C25.3067 1.35997 23.2 2.2133 21.3867 4.02664Z" stroke="#C4C3CD" stroke-width="1.5" stroke-miterlimit="10" stroke-linecap="round" stroke-linejoin="round"/>
<path d="M19.88 5.53333C20.7733 8.71999 23.2667 11.2133 26.4667 12.12" stroke="#C4C3CD" stroke-width="1.5" stroke-miterlimit="10" stroke-linecap="round" stroke-linejoin="round"/>
</svg>
