<svg width="32" height="32" viewBox="0 0 32 32" fill="none" xmlns="http://www.w3.org/2000/svg">
<path d="M12 29.3333H20C26.6667 29.3333 29.3333 26.6666 29.3333 20V12C29.3333 5.33329 26.6667 2.66663 20 2.66663H12C5.33332 2.66663 2.66666 5.33329 2.66666 12V20C2.66666 26.6666 5.33332 29.3333 12 29.3333Z" stroke="#C4C3CD" stroke-width="1.5" stroke-linecap="round" stroke-linejoin="round"/>
<path d="M20.76 24.6667V19.4667" stroke="#C4C3CD" stroke-width="1.5" stroke-miterlimit="10" stroke-linecap="round" stroke-linejoin="round"/>
<path d="M20.76 9.93337V7.33337" stroke="#C4C3CD" stroke-width="1.5" stroke-miterlimit="10" stroke-linecap="round" stroke-linejoin="round"/>
<path d="M20.76 16.8667C22.6746 16.8667 24.2267 15.3146 24.2267 13.4C24.2267 11.4854 22.6746 9.93335 20.76 9.93335C18.8454 9.93335 17.2933 11.4854 17.2933 13.4C17.2933 15.3146 18.8454 16.8667 20.76 16.8667Z" stroke="#C4C3CD" stroke-width="1.5" stroke-miterlimit="10" stroke-linecap="round" stroke-linejoin="round"/>
<path d="M11.24 24.6667V22.0667" stroke="#C4C3CD" stroke-width="1.5" stroke-miterlimit="10" stroke-linecap="round" stroke-linejoin="round"/>
<path d="M11.24 12.5334V7.33337" stroke="#C4C3CD" stroke-width="1.5" stroke-miterlimit="10" stroke-linecap="round" stroke-linejoin="round"/>
<path d="M11.24 22.0666C13.1546 22.0666 14.7067 20.5146 14.7067 18.6C14.7067 16.6854 13.1546 15.1333 11.24 15.1333C9.32543 15.1333 7.77335 16.6854 7.77335 18.6C7.77335 20.5146 9.32543 22.0666 11.24 22.0666Z" stroke="#C4C3CD" stroke-width="1.5" stroke-miterlimit="10" stroke-linecap="round" stroke-linejoin="round"/>
</svg>
