<svg width="18" height="18" viewBox="0 0 18 18" fill="none" xmlns="http://www.w3.org/2000/svg">
<path d="M11.2725 8.07741L15.5175 5.23492C15.945 4.94992 16.0575 4.36492 15.7725 3.94492L14.4075 1.91241C14.1225 1.48491 13.5375 1.37241 13.1175 1.65741L8.87253 4.49991L11.2725 8.07741Z" stroke="white" stroke-width="1.5" stroke-linecap="round" stroke-linejoin="round"/>
<path d="M9.13041 4.85937L5.54715 7.25928L7.46708 10.1259L11.0503 7.72598L9.13041 4.85937Z" stroke="white" stroke-width="1.5" stroke-linecap="round" stroke-linejoin="round"/>
<path d="M4.37252 11.9249L7.33501 9.94494L5.65502 7.43994L2.69251 9.41993C2.34751 9.65243 2.25751 10.1174 2.49001 10.4624L3.33751 11.7224C3.56251 12.0599 4.02752 12.1499 4.37252 11.9249Z" stroke="white" stroke-width="1.5" stroke-linecap="round" stroke-linejoin="round"/>
<path d="M9.0375 9.15002L5.67 16.5" stroke="white" stroke-width="1.5" stroke-linecap="round" stroke-linejoin="round"/>
<path d="M9 9.15002L12.33 16.5" stroke="white" stroke-width="1.5" stroke-linecap="round" stroke-linejoin="round"/>
</svg>
