<svg width="22" height="18" viewBox="0 0 22 18" fill="none" xmlns="http://www.w3.org/2000/svg">
<g clip-path="url(#clip0_654_1491)">
<path fill-rule="evenodd" clip-rule="evenodd" d="M1 1.5H31.0032V11.4639H1V1.5Z" fill="#B20000"/>
<path fill-rule="evenodd" clip-rule="evenodd" d="M1 11.4639H31.0032V16.5H1V11.4639Z" fill="#429F00"/>
<path fill-rule="evenodd" clip-rule="evenodd" d="M1 1.5H4.32262V16.5H1V1.5Z" fill="white"/>
<path fill-rule="evenodd" clip-rule="evenodd" d="M1.1582 1.75488H1.31642V2.00977H1.1582V1.75488ZM1.63286 1.75488H2.10752V2.00977H1.63286V1.75488ZM1.79108 1.5H1.9493V1.75488H1.79108V1.5ZM2.58218 1.5H2.7404V1.75488H2.58218V1.5ZM3.21506 1.75488H3.68972V2.00977H3.21506V1.75488ZM3.37328 1.5H3.5315V1.75488H3.37328V1.5ZM1.47464 2.00977H1.79108V2.26172H1.47464V2.00977ZM1.9493 2.00977H2.26574V2.26172H1.9493V2.00977ZM3.05684 2.00977H3.37328V2.26172H3.05684V2.00977ZM3.5315 2.00977H3.84794V2.26172H3.5315V2.00977ZM1.31642 2.26172H1.63286V2.5166H1.31642V2.26172ZM2.10752 2.26172H2.42396V2.5166H2.10752V2.26172ZM2.89862 2.26172H3.21506V2.5166H2.89862V2.26172ZM3.68972 2.26172H4.00616V2.5166H3.68972V2.26172ZM4.00616 1.75488H4.16438V2.00977H4.00616V1.75488ZM1.1582 2.5166H1.47464V2.77148H1.1582V2.5166ZM2.26574 2.5166H2.58218V2.77148H2.26574V2.5166ZM3.84794 2.5166H4.16438V2.77148H3.84794V2.5166ZM1.31642 3.27832H1.63286V3.5332H1.31642V3.27832ZM1.47464 3.5332H1.79108V3.78809H1.47464V3.5332ZM2.10752 3.28125H2.42396V3.5332H2.10752V3.28125ZM1.9493 3.5332H2.26574V3.78809H1.9493V3.5332ZM1.63286 3.78809H2.10752V4.04297H1.63286V3.78809Z" fill="#B20000"/>
<path fill-rule="evenodd" clip-rule="evenodd" d="M1.7911 4.04297H1.94932V4.29785H1.7911V4.04297ZM2.89864 3.28125H3.21508V3.5332H2.89864V3.28125ZM3.05686 3.5332H3.3733V3.78809H3.05686V3.5332ZM3.68974 3.28125H4.00618V3.5332H3.68974V3.28125ZM3.53152 3.5332H3.84796V3.78809H3.53152V3.5332ZM3.21508 3.78809H3.68974V4.04297H3.21508V3.78809ZM3.3733 4.04297H3.53152V4.29785H3.3733V4.04297ZM2.5822 3.78516H2.74042V4.04004H2.5822V3.78516ZM1 3.78516H1.15822V4.04004H1V3.78516ZM4.1644 3.78516H4.32262V4.04004H4.1644V3.78516ZM1.7911 5.05664H1.94932V5.31152H1.7911V5.05664ZM1.63288 5.31445H2.10754V5.56641H1.63288V5.31445ZM1.47466 5.56641H2.26576V5.82129H1.47466V5.56641ZM3.3733 5.05957H3.53152V5.31445H3.3733V5.05957ZM3.21508 5.31445H3.68974V5.56641H3.21508V5.31445ZM3.05686 5.56641H3.84796V5.82129H3.05686V5.56641ZM3.21508 6.83789H4.00618V7.09277H3.21508V6.83789ZM2.89864 5.82129H4.00618V6.07617H2.89864V5.82129ZM1.31644 5.82129H2.42398V6.07617H1.31644V5.82129ZM1.47466 7.09277H1.94932V7.34766H1.47466V7.09277ZM1.31644 6.83789H2.10754V7.09277H1.31644V6.83789ZM3.53152 6.33398H4.32262V6.58887H3.53152V6.33398ZM3.3733 7.0957H3.84796V7.35059H3.3733V7.0957Z" fill="#B20000"/>
<path fill-rule="evenodd" clip-rule="evenodd" d="M1.63288 7.34766H1.7911V7.60254H1.63288V7.34766ZM3.53152 7.34766H3.68974V7.60254H3.53152V7.34766ZM1 6.33105H1.7911V6.58594H1V6.33105ZM2.42398 6.83789H2.89864V7.09277H2.42398V6.83789ZM2.5822 7.0957H2.74042V7.35059H2.5822V7.0957ZM2.10754 6.33398H3.21508V6.58887H2.10754V6.33398ZM2.74042 2.5166H3.05686V2.77148H2.74042V2.5166ZM2.42398 2.77148H2.89864V3.02637H2.42398V2.77148ZM2.26576 3.02637H2.5822V3.27832H2.26576V3.02637ZM2.74042 3.02637H3.05686V3.27832H2.74042V3.02637ZM1 2.77148H1.31644V3.02637H1V2.77148ZM1.15822 3.02637H1.47466V3.27832H1.15822V3.02637ZM4.00618 2.77148H4.32262V3.02344H4.00618V2.77148ZM3.84796 3.02344H4.1644V3.27539H3.84796V3.02344ZM1 5.30859H1.15822V5.56348H1V5.30859ZM4.1644 5.30859H4.32262V5.56348H4.1644V5.30859ZM2.42398 7.34473H2.89864V7.59961H2.42398V7.34473ZM2.26576 7.59961H2.5822V7.85156H2.26576V7.59961ZM2.74042 7.59961H3.05686V7.85156H2.74042V7.59961ZM2.10754 7.85156H2.42398V8.10645H2.10754V7.85156ZM2.89864 7.85156H3.21508V8.10645H2.89864V7.85156ZM1.94932 8.10645H2.26576V8.36133H1.94932V8.10645ZM3.05686 8.10645H3.3733V8.36133H3.05686V8.10645ZM1.7911 8.36426H2.10754V8.61914H1.7911V8.36426ZM3.21508 8.36426H3.53152V8.61914H3.21508V8.36426ZM1.47466 8.61914H1.94932V8.87402H1.47466V8.61914ZM3.3733 8.61914H3.84796V8.87402H3.3733V8.61914ZM3.68974 8.36426H4.00618V8.61914H3.68974V8.36426ZM3.84796 8.10938H4.1644V8.36426H3.84796V8.10938ZM4.00618 7.85449H4.32262V8.10938H4.00618V7.85449ZM1.31644 8.36426H1.63288V8.61914H1.31644V8.36426ZM1.15822 8.10938H1.47466V8.36426H1.15822V8.10938ZM1 7.85742H1.31644V8.1123H1V7.85742ZM1.63288 8.87695H1.7911V9.12891H1.63288V8.87695ZM3.53152 8.87695H3.68974V9.12891H3.53152V8.87695ZM2.5822 8.11523H2.74042V8.36719H2.5822V8.11523ZM2.10754 8.87695H2.26576V9.12891H2.10754V8.87695ZM3.05686 8.87695H3.21508V9.12891H3.05686V8.87695ZM2.5822 8.87695H2.74042V9.12891H2.5822V8.87695ZM1 8.87695H1.15822V9.12891H1L1 8.87695ZM4.1644 8.87695H4.32262V9.12891H4.1644V8.87695ZM2.5822 5.31445H2.74042V5.56641H2.5822V5.31445ZM1.7911 2.77148H1.94932V3.02637H1.7911V2.77148ZM3.3733 2.77148H3.53152V3.02637H3.3733V2.77148ZM2.42398 4.5498H2.89864V4.80469H2.42398V4.5498ZM2.10754 4.80469H2.5822V5.05957H2.10754V4.80469ZM2.26576 5.05957H2.42398V5.31445H2.26576V5.05957ZM1.94932 4.5498H2.26576V4.80469H1.94932V4.5498ZM2.10754 4.29785H2.5822V4.5498H2.10754V4.29785ZM2.26576 4.04297H2.42398V4.29785H2.26576V4.04297ZM2.74042 4.29785H3.21508V4.5498H2.74042V4.29785ZM2.89864 4.04297H3.05686V4.29785H2.89864V4.04297ZM3.05686 4.5498H3.3733V4.80469H3.05686V4.5498ZM2.74042 4.80469H3.21508V5.05957H2.74042V4.80469ZM2.89864 5.05957H3.05686V5.31445H2.89864V5.05957ZM3.53152 4.5498H3.84796V4.80469H3.53152V4.5498ZM3.68974 4.29785H4.1644V4.5498H3.68974V4.29785ZM4.00618 4.5498H4.32262V4.80469H4.00618V4.5498ZM3.68974 4.80469H4.1644V5.05957H3.68974V4.80469ZM3.84796 5.05957H4.00618V5.31445H3.84796V5.05957ZM3.84796 4.04297H4.00618V4.29785H3.84796V4.04297ZM1 4.54688H1.31644V4.80176H1V4.54688ZM1.15822 4.29492H1.63288V4.54688H1.15822V4.29492ZM1.47466 4.54688H1.7911V4.80176H1.47466V4.54688ZM1.15822 4.80176H1.63288V5.05664H1.15822V4.80176Z" fill="#B20000"/>
<path fill-rule="evenodd" clip-rule="evenodd" d="M1.31644 5.05957H1.47466V5.31445H1.31644V5.05957ZM1.31644 4.04297H1.47466V4.29785H1.31644V4.04297ZM1.15822 6.07617H1.7911V6.33105H1.15822V6.07617ZM1.94932 6.07617H2.5822V6.33105H1.94932V6.07617ZM2.74042 6.07617H3.3733V6.33105H2.74042V6.07617ZM3.53152 6.07617H4.1644V6.33105H3.53152V6.07617ZM2.26576 6.58594H3.05686V6.83789H2.26576V6.58594ZM1.15822 6.58594H1.94932V6.83789H1.15822V6.58594ZM3.3733 6.58594H4.1644V6.83789H3.3733V6.58594ZM4.1644 7.60254H4.32262V7.85449H4.1644V7.60254ZM1 7.60254H1.15822V7.85449H1V7.60254ZM1.15822 16.2451H1.31644V15.9932H1.15822V16.2451ZM1.63288 16.2451H2.10754V15.9932H1.63288V16.2451ZM1.7911 16.5H1.94932V16.2451H1.7911V16.5ZM2.5822 16.5H2.74042V16.2451H2.5822V16.5ZM3.21508 16.2451H3.68974V15.9902H3.21508V16.2451ZM3.3733 16.5H3.53152V16.2451H3.3733V16.5ZM1.47466 15.9902H1.7911V15.7383H1.47466V15.9902ZM1.94932 15.9902H2.26576V15.7383H1.94932V15.9902ZM3.05686 15.9902H3.3733V15.7383H3.05686V15.9902ZM3.53152 15.9902H3.84796V15.7383H3.53152V15.9902ZM2.10754 15.7383H2.42398V15.4834H2.10754V15.7383ZM2.89864 15.7383H3.21508V15.4834H2.89864V15.7383ZM3.68974 15.7383H4.00618V15.4834H3.68974V15.7383ZM4.00618 16.2451H4.1644V15.9902H4.00618V16.2451ZM1.15822 15.4834H1.47466V15.2285H1.15822V15.4834ZM2.26576 15.4834H2.5822V15.2285H2.26576V15.4834ZM3.84796 15.4834H4.1644V15.2285H3.84796V15.4834ZM1.31644 14.7217H1.63288V14.4668H1.31644V14.7217ZM1.47466 14.4668H1.7911V14.2119H1.47466V14.4668ZM2.10754 14.7217H2.42398V14.4668H2.10754V14.7217ZM1.94932 14.4668H2.26576V14.2119H1.94932V14.4668ZM1.63288 14.2119H2.10754V13.957H1.63288V14.2119ZM1.7911 13.957H1.94932V13.7051H1.7911V13.957ZM2.89864 14.7188H3.21508V14.4668H2.89864V14.7188ZM3.05686 14.4668H3.3733V14.2119H3.05686V14.4668ZM3.68974 14.7217H4.00618V14.4668H3.68974V14.7217ZM3.53152 14.4668H3.84796V14.2119H3.53152V14.4668ZM3.21508 14.2119H3.68974V13.957H3.21508V14.2119ZM3.3733 13.957H3.53152V13.7051H3.3733V13.957ZM2.5822 14.2148H2.74042V13.96H2.5822V14.2148ZM1 14.2148H1.15822V13.96H1V14.2148ZM4.1644 14.2148H4.32262V13.96H4.1644V14.2148ZM1.7911 12.9434H1.94932V12.6885H1.7911V12.9434ZM1.63288 12.6855H2.10754V12.4336H1.63288V12.6855ZM1.47466 12.4336H2.26576V12.1787H1.47466V12.4336ZM3.3733 12.9404H3.53152V12.6855H3.3733V12.9404Z" fill="#B20000"/>
<path fill-rule="evenodd" clip-rule="evenodd" d="M3.21508 12.6855H3.68974V12.4336H3.21508V12.6855ZM3.05686 12.4336H3.84796V12.1787H3.05686V12.4336ZM3.21508 11.1621H4.00618V10.9043H3.21508V11.1621ZM2.89864 12.1787H4.00618V11.9238H2.89864V12.1787ZM1.31644 12.1787H2.42398V11.9238H1.31644V12.1787ZM1.47466 10.9072H1.94932V10.6523H1.47466V10.9072ZM1.31644 11.1621H2.10754V10.9043H1.31644V11.1621ZM3.53152 11.666H4.32262V11.4111H3.53152V11.666ZM3.3733 10.9043H3.84796V10.6494H3.3733V10.9043ZM1 11.666H1.7911V11.4111H1V11.666ZM2.42398 11.1592H2.89864V10.9043H2.42398V11.1592ZM2.5822 10.9043H2.74042V10.6494H2.5822V10.9043ZM2.10754 11.666H3.21508V11.4111H2.10754V11.666ZM2.74042 15.4805H3.05686V15.2256H2.74042V15.4805ZM2.42398 15.2256H2.89864V14.9766H2.42398V15.2256ZM2.26576 14.9707H2.5822V14.7158H2.26576V14.9707ZM2.74042 14.9707H3.05686V14.7158H2.74042V14.9707ZM1 15.2285H1.31644V14.9766H1V15.2285ZM1.15822 14.9736H1.47466V14.7217H1.15822V14.9736ZM4.00618 15.2285H4.32262V14.9766H4.00618V15.2285ZM3.84796 14.9736H4.1644V14.7217H3.84796V14.9736ZM1 12.6914H1.15822V12.4365H1V12.6914ZM4.1644 12.6914H4.32262V12.4365H4.1644V12.6914ZM2.26576 10.4004H2.5822V10.1484H2.26576V10.4004ZM2.74042 10.4004H3.05686V10.1484H2.74042V10.4004ZM2.10754 10.1484H2.42398V9.89355H2.10754V10.1484ZM2.89864 10.1484H3.21508V9.89355H2.89864V10.1484ZM1.94932 9.89355H2.26576V9.63867H1.94932V9.89355ZM3.05686 9.89355H3.3733V9.63867H3.05686V9.89355ZM1.7911 9.63574H2.10754V9.38086H1.7911V9.63574ZM3.21508 9.63574H3.53152V9.38086H3.21508V9.63574ZM1.47466 9.38086H1.94932V9.12598H1.47466V9.38086ZM3.3733 9.38086H3.84796V9.12598H3.3733V9.38086ZM3.68974 9.63574H4.00618V9.38086H3.68974V9.63574ZM3.84796 9.89062H4.1644V9.63574H3.84796V9.89062ZM4.00618 10.1455H4.32262V9.89062H4.00618V10.1455ZM1.31644 9.63574H1.63288V9.38086H1.31644V9.63574ZM1.15822 9.89062H1.47466V9.63574H1.15822V9.89062ZM1 10.1426H1.31644V9.88769H1V10.1426ZM1.63288 9.12305H1.7911V8.87109H1.63288V9.12305ZM2.5822 9.88477H2.74042V9.63281H2.5822V9.88477ZM2.5822 12.6826H2.74042V12.4307H2.5822V12.6826ZM1.7911 15.2256H1.94932V14.9766H1.7911V15.2256ZM3.3733 15.2256H3.53152V14.9766H3.3733V15.2256ZM2.42398 13.4531H2.89864V13.1982H2.42398V13.4531ZM2.10754 13.1982H2.5822V12.9434H2.10754V13.1982ZM2.26576 12.9434H2.42398V12.6885H2.26576V12.9434ZM1.94932 13.4531H2.26576V13.1982H1.94932V13.4531ZM2.10754 13.7021H2.5822V13.4531H2.10754V13.7021ZM2.26576 13.957H2.42398V13.7051H2.26576V13.957ZM2.74042 13.7021H3.21508V13.4531H2.74042V13.7021ZM2.89864 13.957H3.05686V13.7051H2.89864V13.957ZM3.05686 13.4502H3.3733V13.1953H3.05686V13.4502ZM2.74042 13.1953H3.21508V12.9404H2.74042V13.1953ZM2.89864 12.9404H3.05686V12.6855H2.89864V12.9404ZM3.53152 13.4531H3.84796V13.1982H3.53152V13.4531ZM3.68974 13.7021H4.1644V13.4531H3.68974V13.7021ZM4.00618 13.4502H4.32262V13.1953H4.00618V13.4502ZM3.68974 13.1953H4.1644V12.9404H3.68974V13.1953ZM3.84796 12.9404H4.00618V12.6855H3.84796V12.9404ZM3.84796 13.957H4.00618V13.7051H3.84796V13.957ZM1 13.4531H1.31644V13.1982H1V13.4531ZM1.15822 13.7021H1.63288V13.4531H1.15822V13.7021Z" fill="#B20000"/>
<path fill-rule="evenodd" clip-rule="evenodd" d="M1.47466 13.4502H1.7911V13.1953H1.47466V13.4502ZM1.15822 13.1953H1.63288V12.9404H1.15822V13.1953ZM1.31644 12.9404H1.47466V12.6855H1.31644V12.9404ZM1.31644 13.957H1.47466V13.7051H1.31644V13.957ZM1.15822 11.9238H1.7911V11.6689H1.15822V11.9238ZM1.94932 11.9238H2.5822V11.6689H1.94932V11.9238ZM2.74042 11.9238H3.3733V11.6689H2.74042V11.9238ZM3.53152 11.9238H4.1644V11.6689H3.53152V11.9238ZM2.26576 11.4141H3.05686V11.1621H2.26576V11.4141ZM1.15822 11.4141H1.94932V11.1621H1.15822V11.4141ZM3.3733 11.4141H4.1644V11.1621H3.3733V11.4141ZM4.1644 10.4004H4.32262V10.1426H4.1644V10.4004ZM1 10.4004H1.15822V10.1426H1V10.4004ZM2.42398 9.12598H2.5822V9.38086H2.42398V9.12598ZM2.74042 9.12598H2.89864V9.38086H2.74042V9.12598ZM2.74042 8.61914H2.89864V8.87402H2.74042V8.61914ZM2.42398 8.61914H2.5822V8.87402H2.42398V8.61914ZM1.31644 15.4834H1.63288V15.7383H1.31644V15.4834ZM3.53152 10.6523H3.68974V10.3975H3.53152V10.6523ZM1.63288 10.6523H1.7911V10.3975H1.63288V10.6523ZM2.42398 10.3975H2.89864V10.6523H2.42398V10.3975Z" fill="#B20000"/>
</g>
<rect x="0.5" y="1" width="21" height="16" stroke="#E4E5F1"/>
<defs>
<clipPath id="clip0_654_1491">
<rect x="1" y="1.5" width="20" height="15" fill="white"/>
</clipPath>
</defs>
</svg>
